# Tiled2Unity generated file. Do not modify by hand.
# Wavefront file for 'Mapa_mesh_0040.obj'

# Vertices (Count = 16)
v -96 -32 0
v -130 -32 0
v -130 4 0
v -96 4 0
v -96 -128 0
v -130 -128 0
v -130 -92 0
v -96 -92 0
v -224 -160 0
v -258 -160 0
v -258 -124 0
v -224 -124 0
v -416 -192 0
v -450 -192 0
v -450 -156 0
v -416 -156 0

# Texture cooridinates (Count = 4)
vt 0 0
vt 1 0
vt 1 1
vt 0 1

# Normal
vn 0 0 -1

# Mesh description
g Mapa_mesh_0040

# Faces
f 1/1/1 2/2/1 3/3/1 4/4/1
f 5/1/1 6/2/1 7/3/1 8/4/1
f 9/1/1 10/2/1 11/3/1 12/4/1
f 13/1/1 14/2/1 15/3/1 16/4/1

