# Tiled2Unity generated file. Do not modify by hand.
# Wavefront file for 'Mapa_mesh_0011.obj'

# Vertices (Count = 32)
v -384 -160 0
v -448 -160 0
v -448 -128 0
v -384 -128 0
v -416 -160 0
v -480 -160 0
v -480 -128 0
v -416 -128 0
v -448 -160 0
v -512 -160 0
v -512 -128 0
v -448 -128 0
v -480 -160 0
v -544 -160 0
v -544 -128 0
v -480 -128 0
v -384 -192 0
v -448 -192 0
v -448 -160 0
v -384 -160 0
v -448 -192 0
v -512 -192 0
v -512 -160 0
v -448 -160 0
v -384 -224 0
v -448 -224 0
v -448 -192 0
v -384 -192 0
v -448 -224 0
v -512 -224 0
v -512 -192 0
v -448 -192 0

# Texture cooridinates (Count = 4)
vt 0 0
vt 1 0
vt 1 1
vt 0 1

# Normal
vn 0 0 -1

# Mesh description
g Mapa_mesh_0011

# Faces
f 1/1/1 2/2/1 3/3/1 4/4/1
f 5/1/1 6/2/1 7/3/1 8/4/1
f 9/1/1 10/2/1 11/3/1 12/4/1
f 13/1/1 14/2/1 15/3/1 16/4/1
f 17/1/1 18/2/1 19/3/1 20/4/1
f 21/1/1 22/2/1 23/3/1 24/4/1
f 25/1/1 26/2/1 27/3/1 28/4/1
f 29/1/1 30/2/1 31/3/1 32/4/1

